ffmpeg started on 2025-05-12 at 14:54:36
Report written to "D:\Convert\FFMetrics\reports\psnr_report-6.txt"
Log level: 32
Command line:
ffmpeg -hide_banner -nostdin -i "G:\\\xc0\xed\xe8\xec\xe5\\\xce\xed\xe3\xee\xe8\xed\xe3\xe8\\!_35_\xcb\xe5\xf2\xee_2024\\DreamCast\\\xc4\xe8\xf1\xea\xe2\xe0\xeb\xe8\xf4\xe8\xf6\xe8\xf0\xee\xe2\xe0\xed \xef\xee \xe6\xe8\xe7\xed\xe8\\[DC] Isekai Shikkaku - 10_Telegram_HEVC.mkv" -i "G:\\\xc0\xed\xe8\xec\xe5\\\xce\xed\xe3\xee\xe8\xed\xe3\xe8\\!_35_\xcb\xe5\xf2\xee_2024\\DreamCast\\\xc4\xe8\xf1\xea\xe2\xe0\xeb\xe8\xf4\xe8\xf6\xe8\xf0\xee\xe2\xe0\xed \xef\xee \xe6\xe8\xe7\xed\xe8\\[DC] Isekai Shikkaku - 10_Telegram.mp4" -lavfi "[0:v]settb=AVTB,setpts=PTS-STARTPTS,format=pix_fmts=yuv420p10,fps=24000/1001,scale=1920:1080:flags=bicubic[main];[1:v]settb=AVTB,setpts=PTS-STARTPTS,format=pix_fmts=yuv420p,fps=24000/1001,scale=1920:1080:flags=bicubic[ref];[main][ref]psnr=eof_action=endall:stats_file='D\\:/Convert/FFMetrics/logs/psnr_logfile-6.txt'" -f null -
Input #0, matroska,webm, from 'G:\Аниме\Онгоинги\!_35_Лето_2024\DreamCast\Дисквалифицирован по жизни\[DC] Isekai Shikkaku - 10_Telegram_HEVC.mkv':
  Metadata:
    COMPATIBLE_BRANDS: isomiso2avc1mp41
    MAJOR_BRAND     : isom
    MINOR_VERSION   : 512
    ENCODER         : Lavf61.7.100
  Duration: 00:23:46.77, start: -0.021000, bitrate: 1227 kb/s
  Stream #0:0: Video: hevc (Main 10), yuv420p10le(tv, bt709, progressive), 1920x1080 [SAR 1:1 DAR 16:9], 23.98 fps, 23.98 tbr, 1k tbn (default)
      Metadata:
        HANDLER_NAME    : VideoHandler
        VENDOR_ID       : [0][0][0][0]
        ENCODER         : Lavc61.19.100 libx265
        BPS             : 1030667
        DURATION        : 00:23:46.633708333
        NUMBER_OF_FRAMES: 34205
        NUMBER_OF_BYTES : 183798080
        _STATISTICS_WRITING_APP: mkvpropedit v66.0.0 ('Josie') 64-bit
        _STATISTICS_WRITING_DATE_UTC: 2025-05-07 11:44:24
        _STATISTICS_TAGS: BPS DURATION NUMBER_OF_FRAMES NUMBER_OF_BYTES
  Stream #0:1: Audio: aac (LC), 48000 Hz, stereo, fltp (default)
      Metadata:
        HANDLER_NAME    : SoundHandler
        VENDOR_ID       : [0][0][0][0]
        ENCODER         : Lavc61.19.100 aac
        BPS             : 192954
        DURATION        : 00:23:46.773000000
        NUMBER_OF_FRAMES: 66881
        NUMBER_OF_BYTES : 34412742
        _STATISTICS_WRITING_APP: mkvpropedit v66.0.0 ('Josie') 64-bit
        _STATISTICS_WRITING_DATE_UTC: 2025-05-07 11:44:24
        _STATISTICS_TAGS: BPS DURATION NUMBER_OF_FRAMES NUMBER_OF_BYTES
Input #1, mov,mp4,m4a,3gp,3g2,mj2, from 'G:\Аниме\Онгоинги\!_35_Лето_2024\DreamCast\Дисквалифицирован по жизни\[DC] Isekai Shikkaku - 10_Telegram.mp4':
  Metadata:
    major_brand     : isom
    minor_version   : 512
    compatible_brands: isomiso2avc1mp41
    encoder         : Lavf61.1.100
  Duration: 00:23:46.74, start: 0.000000, bitrate: 3777 kb/s
  Stream #1:0[0x1](und): Video: h264 (High) (avc1 / 0x31637661), yuv420p(tv, bt709, progressive), 1920x1080 [SAR 1:1 DAR 16:9], 3630 kb/s, 23.98 fps, 23.98 tbr, 24k tbn (default)
      Metadata:
        handler_name    : VideoHandler
        vendor_id       : [0][0][0][0]
        encoder         : Lavc61.3.100 h264_qsv
  Stream #1:1[0x2](und): Audio: aac (HE-AACv2) (mp4a / 0x6134706D), 48000 Hz, stereo, fltp, 144 kb/s (default)
      Metadata:
        handler_name    : SoundHandler
        vendor_id       : [0][0][0][0]
Stream mapping:
  Stream #0:0 (hevc) -> settb:default
  Stream #1:0 (h264) -> settb:default
  psnr:default -> Stream #0:0 (wrapped_avframe)
  Stream #0:1 -> #0:1 (aac (native) -> pcm_s16le (native))
Output #0, null, to 'pipe:':
  Metadata:
    COMPATIBLE_BRANDS: isomiso2avc1mp41
    MAJOR_BRAND     : isom
    MINOR_VERSION   : 512
    encoder         : Lavf61.7.100
  Stream #0:0: Video: wrapped_avframe, yuv420p10le(tv, bt709, progressive), 1920x1080 [SAR 1:1 DAR 16:9], q=2-31, 200 kb/s, 23.98 fps, 23.98 tbn
      Metadata:
        encoder         : Lavc61.19.100 wrapped_avframe
  Stream #0:1: Audio: pcm_s16le, 48000 Hz, stereo, s16, 1536 kb/s (default)
      Metadata:
        HANDLER_NAME    : SoundHandler
        VENDOR_ID       : [0][0][0][0]
        _STATISTICS_TAGS: BPS DURATION NUMBER_OF_FRAMES NUMBER_OF_BYTES
        BPS             : 192954
        DURATION        : 00:23:46.773000000
        NUMBER_OF_FRAMES: 66881
        NUMBER_OF_BYTES : 34412742
        _STATISTICS_WRITING_APP: mkvpropedit v66.0.0 ('Josie') 64-bit
        _STATISTICS_WRITING_DATE_UTC: 2025-05-07 11:44:24
        encoder         : Lavc61.19.100 pcm_s16le
frame=  170 fps=0.0 q=-0.0 size=N/A time=00:00:07.09 bitrate=N/A speed=13.5x    frame=  430 fps=417 q=-0.0 size=N/A time=00:00:17.93 bitrate=N/A speed=17.4x    frame=  650 fps=418 q=-0.0 size=N/A time=00:00:27.11 bitrate=N/A speed=17.4x    frame=  912 fps=442 q=-0.0 size=N/A time=00:00:38.03 bitrate=N/A speed=18.4x    frame= 1140 fps=441 q=-0.0 size=N/A time=00:00:47.54 bitrate=N/A speed=18.4x    frame= 1420 fps=457 q=-0.0 size=N/A time=00:00:59.22 bitrate=N/A speed=19.1x    frame= 1644 fps=455 q=-0.0 size=N/A time=00:01:08.56 bitrate=N/A speed=  19x    frame= 1831 fps=443 q=-0.0 size=N/A time=00:01:16.36 bitrate=N/A speed=18.5x    frame= 2061 fps=444 q=-0.0 size=N/A time=00:01:25.96 bitrate=N/A speed=18.5x    frame= 2307 fps=447 q=-0.0 size=N/A time=00:01:36.22 bitrate=N/A speed=18.6x    frame= 2549 fps=448 q=-0.0 size=N/A time=00:01:46.31 bitrate=N/A speed=18.7x    frame= 2764 fps=446 q=-0.0 size=N/A time=00:01:55.28 bitrate=N/A speed=18.6x    frame= 2996 fps=446 q=-0.0 size=N/A time=00:02:04.95 bitrate=N/A speed=18.6x    frame= 3219 fps=446 q=-0.0 size=N/A time=00:02:14.25 bitrate=N/A speed=18.6x    frame= 3428 fps=442 q=-0.0 size=N/A time=00:02:22.97 bitrate=N/A speed=18.5x    frame= 3613 fps=437 q=-0.0 size=N/A time=00:02:30.69 bitrate=N/A speed=18.2x    frame= 3745 fps=426 q=-0.0 size=N/A time=00:02:36.19 bitrate=N/A speed=17.8x    frame= 3947 fps=424 q=-0.0 size=N/A time=00:02:44.62 bitrate=N/A speed=17.7x    frame= 4120 fps=419 q=-0.0 size=N/A time=00:02:51.83 bitrate=N/A speed=17.5x    frame= 4319 fps=418 q=-0.0 size=N/A time=00:03:00.13 bitrate=N/A speed=17.4x    frame= 4505 fps=415 q=-0.0 size=N/A time=00:03:07.89 bitrate=N/A speed=17.3x    frame= 4702 fps=414 q=-0.0 size=N/A time=00:03:16.11 bitrate=N/A speed=17.3x    frame= 4929 fps=415 q=-0.0 size=N/A time=00:03:25.58 bitrate=N/A speed=17.3x    frame= 5113 fps=413 q=-0.0 size=N/A time=00:03:33.25 bitrate=N/A speed=17.2x    frame= 5289 fps=410 q=-0.0 size=N/A time=00:03:40.59 bitrate=N/A speed=17.1x    frame= 5489 fps=409 q=-0.0 size=N/A time=00:03:48.93 bitrate=N/A speed=17.1x    frame= 5668 fps=406 q=-0.0 size=N/A time=00:03:56.40 bitrate=N/A speed=  17x    frame= 5885 fps=407 q=-0.0 size=N/A time=00:04:05.45 bitrate=N/A speed=  17x    frame= 6052 fps=404 q=-0.0 size=N/A time=00:04:12.41 bitrate=N/A speed=16.9x    frame= 6279 fps=405 q=-0.0 size=N/A time=00:04:21.88 bitrate=N/A speed=16.9x    frame= 6466 fps=404 q=-0.0 size=N/A time=00:04:29.68 bitrate=N/A speed=16.8x    frame= 6627 fps=401 q=-0.0 size=N/A time=00:04:36.40 bitrate=N/A speed=16.7x    frame= 6866 fps=403 q=-0.0 size=N/A time=00:04:46.36 bitrate=N/A speed=16.8x    frame= 7102 fps=405 q=-0.0 size=N/A time=00:04:56.21 bitrate=N/A speed=16.9x    frame= 7340 fps=406 q=-0.0 size=N/A time=00:05:06.13 bitrate=N/A speed=16.9x    frame= 7596 fps=409 q=-0.0 size=N/A time=00:05:16.81 bitrate=N/A speed=17.1x    frame= 7839 fps=410 q=-0.0 size=N/A time=00:05:26.95 bitrate=N/A speed=17.1x    frame= 8062 fps=411 q=-0.0 size=N/A time=00:05:36.25 bitrate=N/A speed=17.1x    frame= 8322 fps=413 q=-0.0 size=N/A time=00:05:47.09 bitrate=N/A speed=17.2x    frame= 8586 fps=416 q=-0.0 size=N/A time=00:05:58.10 bitrate=N/A speed=17.3x    frame= 8846 fps=418 q=-0.0 size=N/A time=00:06:08.95 bitrate=N/A speed=17.4x    frame= 9082 fps=419 q=-0.0 size=N/A time=00:06:18.79 bitrate=N/A speed=17.5x    frame= 9315 fps=420 q=-0.0 size=N/A time=00:06:28.51 bitrate=N/A speed=17.5x    frame= 9571 fps=421 q=-0.0 size=N/A time=00:06:39.19 bitrate=N/A speed=17.6x    frame= 9844 fps=424 q=-0.0 size=N/A time=00:06:50.57 bitrate=N/A speed=17.7x    frame=10105 fps=426 q=-0.0 size=N/A time=00:07:01.46 bitrate=N/A speed=17.8x    frame=10360 fps=427 q=-0.0 size=N/A time=00:07:12.09 bitrate=N/A speed=17.8x    frame=10582 fps=427 q=-0.0 size=N/A time=00:07:21.35 bitrate=N/A speed=17.8x    frame=10810 fps=427 q=-0.0 size=N/A time=00:07:30.86 bitrate=N/A speed=17.8x    frame=11074 fps=429 q=-0.0 size=N/A time=00:07:41.87 bitrate=N/A speed=17.9x    frame=11341 fps=431 q=-0.0 size=N/A time=00:07:53.01 bitrate=N/A speed=  18x    frame=11615 fps=433 q=-0.0 size=N/A time=00:08:04.44 bitrate=N/A speed=  18x    frame=11846 fps=433 q=-0.0 size=N/A time=00:08:14.07 bitrate=N/A speed=18.1x    frame=12121 fps=435 q=-0.0 size=N/A time=00:08:25.54 bitrate=N/A speed=18.1x    frame=12383 fps=436 q=-0.0 size=N/A time=00:08:36.47 bitrate=N/A speed=18.2x    frame=12626 fps=437 q=-0.0 size=N/A time=00:08:46.60 bitrate=N/A speed=18.2x    frame=12894 fps=438 q=-0.0 size=N/A time=00:08:57.78 bitrate=N/A speed=18.3x    frame=13147 fps=439 q=-0.0 size=N/A time=00:09:08.33 bitrate=N/A speed=18.3x    frame=13395 fps=440 q=-0.0 size=N/A time=00:09:18.68 bitrate=N/A speed=18.3x    frame=13646 fps=441 q=-0.0 size=N/A time=00:09:29.15 bitrate=N/A speed=18.4x    frame=13898 fps=441 q=-0.0 size=N/A time=00:09:39.66 bitrate=N/A speed=18.4x    frame=14160 fps=443 q=-0.0 size=N/A time=00:09:50.59 bitrate=N/A speed=18.5x    frame=14437 fps=444 q=-0.0 size=N/A time=00:10:02.14 bitrate=N/A speed=18.5x    frame=14666 fps=444 q=-0.0 size=N/A time=00:10:11.69 bitrate=N/A speed=18.5x    frame=14939 fps=445 q=-0.0 size=N/A time=00:10:23.08 bitrate=N/A speed=18.6x    frame=15131 fps=444 q=-0.0 size=N/A time=00:10:31.08 bitrate=N/A speed=18.5x    frame=15293 fps=442 q=-0.0 size=N/A time=00:10:37.84 bitrate=N/A speed=18.4x    frame=15522 fps=442 q=-0.0 size=N/A time=00:10:47.39 bitrate=N/A speed=18.4x    frame=15771 fps=443 q=-0.0 size=N/A time=00:10:57.78 bitrate=N/A speed=18.5x    frame=16031 fps=444 q=-0.0 size=N/A time=00:11:08.62 bitrate=N/A speed=18.5x    frame=16280 fps=444 q=-0.0 size=N/A time=00:11:19.01 bitrate=N/A speed=18.5x    frame=16504 fps=444 q=-0.0 size=N/A time=00:11:28.35 bitrate=N/A speed=18.5x    frame=16708 fps=444 q=-0.0 size=N/A time=00:11:36.86 bitrate=N/A speed=18.5x    frame=16940 fps=444 q=-0.0 size=N/A time=00:11:46.53 bitrate=N/A speed=18.5x    frame=17179 fps=444 q=-0.0 size=N/A time=00:11:56.50 bitrate=N/A speed=18.5x    frame=17406 fps=444 q=-0.0 size=N/A time=00:12:05.97 bitrate=N/A speed=18.5x    frame=17669 fps=445 q=-0.0 size=N/A time=00:12:16.94 bitrate=N/A speed=18.5x    frame=17914 fps=445 q=-0.0 size=N/A time=00:12:27.16 bitrate=N/A speed=18.6x    frame=18186 fps=446 q=-0.0 size=N/A time=00:12:38.50 bitrate=N/A speed=18.6x    frame=18444 fps=447 q=-0.0 size=N/A time=00:12:49.26 bitrate=N/A speed=18.6x    frame=18710 fps=448 q=-0.0 size=N/A time=00:13:00.36 bitrate=N/A speed=18.7x    frame=18976 fps=448 q=-0.0 size=N/A time=00:13:11.45 bitrate=N/A speed=18.7x    frame=19226 fps=449 q=-0.0 size=N/A time=00:13:21.88 bitrate=N/A speed=18.7x    frame=19464 fps=449 q=-0.0 size=N/A time=00:13:31.81 bitrate=N/A speed=18.7x    frame=19658 fps=448 q=-0.0 size=N/A time=00:13:39.90 bitrate=N/A speed=18.7x    frame=19846 fps=447 q=-0.0 size=N/A time=00:13:47.74 bitrate=N/A speed=18.7x    frame=20043 fps=446 q=-0.0 size=N/A time=00:13:55.96 bitrate=N/A speed=18.6x    frame=20271 fps=446 q=-0.0 size=N/A time=00:14:05.46 bitrate=N/A speed=18.6x    frame=20504 fps=446 q=-0.0 size=N/A time=00:14:15.18 bitrate=N/A speed=18.6x    frame=20734 fps=446 q=-0.0 size=N/A time=00:14:24.78 bitrate=N/A speed=18.6x    frame=20968 fps=446 q=-0.0 size=N/A time=00:14:34.54 bitrate=N/A speed=18.6x    frame=21221 fps=447 q=-0.0 size=N/A time=00:14:45.09 bitrate=N/A speed=18.6x    frame=21475 fps=447 q=-0.0 size=N/A time=00:14:55.68 bitrate=N/A speed=18.7x    frame=21686 fps=447 q=-0.0 size=N/A time=00:15:04.48 bitrate=N/A speed=18.6x    frame=21938 fps=447 q=-0.0 size=N/A time=00:15:14.99 bitrate=N/A speed=18.7x    frame=22147 fps=447 q=-0.0 size=N/A time=00:15:23.71 bitrate=N/A speed=18.6x    frame=22351 fps=447 q=-0.0 size=N/A time=00:15:32.22 bitrate=N/A speed=18.6x    frame=22561 fps=446 q=-0.0 size=N/A time=00:15:40.98 bitrate=N/A speed=18.6x    frame=22775 fps=446 q=-0.0 size=N/A time=00:15:49.90 bitrate=N/A speed=18.6x    frame=22960 fps=445 q=-0.0 size=N/A time=00:15:57.62 bitrate=N/A speed=18.6x    frame=23175 fps=445 q=-0.0 size=N/A time=00:16:06.59 bitrate=N/A speed=18.5x    frame=23385 fps=444 q=-0.0 size=N/A time=00:16:15.34 bitrate=N/A speed=18.5x    frame=23610 fps=444 q=-0.0 size=N/A time=00:16:24.73 bitrate=N/A speed=18.5x    frame=23872 fps=445 q=-0.0 size=N/A time=00:16:35.66 bitrate=N/A speed=18.6x    frame=24132 fps=445 q=-0.0 size=N/A time=00:16:46.50 bitrate=N/A speed=18.6x    frame=24366 fps=445 q=-0.0 size=N/A time=00:16:56.26 bitrate=N/A speed=18.6x    frame=24622 fps=446 q=-0.0 size=N/A time=00:17:06.94 bitrate=N/A speed=18.6x    frame=24885 fps=446 q=-0.0 size=N/A time=00:17:17.91 bitrate=N/A speed=18.6x    frame=25125 fps=447 q=-0.0 size=N/A time=00:17:27.92 bitrate=N/A speed=18.6x    frame=25386 fps=447 q=-0.0 size=N/A time=00:17:38.80 bitrate=N/A speed=18.6x    frame=25647 fps=448 q=-0.0 size=N/A time=00:17:49.69 bitrate=N/A speed=18.7x    frame=25923 fps=448 q=-0.0 size=N/A time=00:18:01.20 bitrate=N/A speed=18.7x    frame=26193 fps=449 q=-0.0 size=N/A time=00:18:12.46 bitrate=N/A speed=18.7x    frame=26454 fps=450 q=-0.0 size=N/A time=00:18:23.35 bitrate=N/A speed=18.7x    frame=26720 fps=450 q=-0.0 size=N/A time=00:18:34.44 bitrate=N/A speed=18.8x    frame=26966 fps=450 q=-0.0 size=N/A time=00:18:44.70 bitrate=N/A speed=18.8x    frame=27196 fps=450 q=-0.0 size=N/A time=00:18:54.29 bitrate=N/A speed=18.8x    frame=27468 fps=451 q=-0.0 size=N/A time=00:19:05.64 bitrate=N/A speed=18.8x    frame=27732 fps=451 q=-0.0 size=N/A time=00:19:16.65 bitrate=N/A speed=18.8x    frame=28002 fps=452 q=-0.0 size=N/A time=00:19:27.91 bitrate=N/A speed=18.9x    frame=28259 fps=452 q=-0.0 size=N/A time=00:19:38.63 bitrate=N/A speed=18.9x    frame=28526 fps=453 q=-0.0 size=N/A time=00:19:49.77 bitrate=N/A speed=18.9x    frame=28765 fps=453 q=-0.0 size=N/A time=00:19:59.74 bitrate=N/A speed=18.9x    frame=29012 fps=453 q=-0.0 size=N/A time=00:20:10.04 bitrate=N/A speed=18.9x    frame=29277 fps=454 q=-0.0 size=N/A time=00:20:21.09 bitrate=N/A speed=18.9x    frame=29524 fps=454 q=-0.0 size=N/A time=00:20:31.39 bitrate=N/A speed=18.9x    frame=29802 fps=455 q=-0.0 size=N/A time=00:20:42.99 bitrate=N/A speed=  19x    frame=30065 fps=455 q=-0.0 size=N/A time=00:20:53.96 bitrate=N/A speed=  19x    frame=30342 fps=456 q=-0.0 size=N/A time=00:21:05.51 bitrate=N/A speed=  19x    frame=30569 fps=456 q=-0.0 size=N/A time=00:21:14.98 bitrate=N/A speed=  19x    frame=30844 fps=456 q=-0.0 size=N/A time=00:21:26.45 bitrate=N/A speed=  19x    frame=31093 fps=456 q=-0.0 size=N/A time=00:21:36.83 bitrate=N/A speed=  19x    frame=31290 fps=456 q=-0.0 size=N/A time=00:21:45.05 bitrate=N/A speed=  19x    frame=31487 fps=455 q=-0.0 size=N/A time=00:21:53.27 bitrate=N/A speed=  19x    frame=31738 fps=456 q=-0.0 size=N/A time=00:22:03.73 bitrate=N/A speed=  19x    frame=31995 fps=456 q=-0.0 size=N/A time=00:22:14.45 bitrate=N/A speed=  19x    frame=32219 fps=456 q=-0.0 size=N/A time=00:22:23.80 bitrate=N/A speed=  19x    frame=32476 fps=456 q=-0.0 size=N/A time=00:22:34.51 bitrate=N/A speed=  19x    frame=32733 fps=456 q=-0.0 size=N/A time=00:22:45.23 bitrate=N/A speed=  19x    frame=32970 fps=456 q=-0.0 size=N/A time=00:22:55.12 bitrate=N/A speed=  19x    frame=33215 fps=456 q=-0.0 size=N/A time=00:23:05.34 bitrate=N/A speed=  19x    frame=33449 fps=456 q=-0.0 size=N/A time=00:23:15.10 bitrate=N/A speed=  19x    frame=33661 fps=456 q=-0.0 size=N/A time=00:23:23.94 bitrate=N/A speed=  19x    frame=33903 fps=456 q=-0.0 size=N/A time=00:23:34.03 bitrate=N/A speed=  19x    frame=34158 fps=456 q=-0.0 size=N/A time=00:23:44.67 bitrate=N/A speed=  19x    [Parsed_psnr_10 @ 000002269626a440] PSNR y:48.539166 u:48.332063 v:48.858751 average:48.555193 min:40.497800 max:inf
[out#0/null @ 0000022696521440] video:14697KiB audio:267524KiB subtitle:0KiB other streams:0KiB global headers:0KiB muxing overhead: unknown
frame=34205 fps=457 q=-0.0 Lsize=N/A time=00:23:46.63 bitrate=N/A speed=  19x    
